<svg id="Capa_1" enable-background="new 0 0 512 512" height="512" viewBox="0 0 512 512" width="512" xmlns="http://www.w3.org/2000/svg"><path d="m43.034 259.049-42.039 58.827c-2.5 3.499.001 8.359 4.302 8.359h121.123l-68.846-67.187h-14.54z" fill="#62b4fd"/><path d="m57.575 259.049h-14.541l-12.844 17.973 50.429 49.214h45.801z" fill="#27a2fb"/><path d="m219.307 240.698 143.867-143.834c3.848-3.847 10.298-.074 8.83 5.164l-56.585 201.905z" fill="#62b4fd"/><path d="m363.174 96.863-41.089 41.08-40.315 143.85 33.649 22.138 56.585-201.905c1.468-5.237-4.983-9.009-8.83-5.163z" fill="#27a2fb"/><path d="m309.017 261.836 129.172 129.144h-261.873c-1.409 0-2.76-.562-3.752-1.562l-129.446-130.369h259.17c2.524 0 4.945 1.002 6.729 2.787z" fill="#89c6fc"/><path d="m302.288 259.049h-50.943l76.626 76.61c6.13 6.128 1.788 16.607-6.88 16.607h-185.416l36.889 37.152c.993 1 2.343 1.562 3.752 1.562h261.873l-129.172-129.144c-1.784-1.785-4.205-2.787-6.729-2.787z" fill="#62b4fd"/><path d="m174.909 158.238 117.508-117.482c3.609-3.608 9.779-1.053 9.779 4.05v209.88c0 8.156-3.241 15.978-9.009 21.745l-113.014 112.989c-3.323 3.323-9.007.983-9.026-3.716l-.884-216.187c-.017-4.229 1.656-8.289 4.646-11.279z" fill="#b3d8fb"/><path d="m292.417 40.756-29.479 29.473v165.3c0 8.156-3.241 15.978-9.009 21.745l-82.967 82.949.186 45.481c.019 4.699 5.703 7.039 9.026 3.716l113.014-112.989c5.768-5.767 9.009-13.589 9.009-21.745v-209.88c-.001-5.102-6.171-7.657-9.78-4.05z" fill="#89c6fc"/><path d="m310.561 263.31 199.721 199.677c3.671 3.67 1.071 9.945-4.12 9.945h-98.582c-4.851 0-9.232-2.899-11.128-7.363z" fill="#b3d8fb"/><path d="m510.282 462.987-199.721-199.677 40.929 96.38 103.32 103.298c3.671 3.67 1.071 9.945-4.12 9.945h55.472c5.191-.001 7.79-6.276 4.12-9.946z" fill="#89c6fc"/></svg>